<svg xmlns="http://www.w3.org/2000/svg" xmlns:xlink="http://www.w3.org/1999/xlink" id="body_2" preserveAspectRatio="xMinYMin meet" viewBox="0 0 793 1121"><defs><clipPath id="1"><path d="M0 841L0 -0.9000244L0 -0.9000244L595.3 -0.9000244L595.3 -0.9000244L595.3 841L595.3 841L0 841z" /></clipPath><clipPath id="2"><path d="M0 -0.9000244L595.3 -0.9000244L595.3 -0.9000244L595.3 841L595.3 841L0 841z" /></clipPath></defs><g transform="matrix(1.333333 0 0 1.333333 0 0)"><g><g clip-path="url(#1)"><g clip-path="url(#2)"><path transform="matrix(1 0 0 -1 0 841)" d="M78.95 156.85L521.15 156.8L521.15 156.8L521.15 155.8L521.15 155.8L78.95 155.85L78.95 155.85L78.95 156.85" stroke="none" fill="#000000" fill-rule="winding" /><path transform="matrix(1 0 0 -1 0 841)" d="M80.25 104.35L522.45 104.35L522.45 104.35L522.45 103.35L522.45 103.35L80.25 103.35z" stroke="none" fill="#000000" fill-rule="winding" /><path transform="matrix(1 0 0 -1 0 841)" d="M81.2 129.425L523.4 129.425L523.4 129.425L523.4 128.675L523.4 128.675L81.2 128.675z" stroke="none" fill="#000000" fill-rule="winding" /></g></g></g></g></svg>